<?xml version="1.0" encoding="utf-8"?>
<!-- Uploaded to: SVG Repo, www.svgrepo.com, Generator: SVG Repo Mixer Tools -->
<svg width="800px" height="800px" viewBox="0 0 1024 1024" class="icon"  version="1.1" xmlns="http://www.w3.org/2000/svg"><path d="M384.341333 159.744a74.410667 53.162667 90 1 0 106.325334 0 74.410667 53.162667 90 1 0-106.325334 0Z" fill="#8D6E63" /><path d="M278.762667 866.858667c36.693333 53.674667 79.637333 85.376 135.168 66.154666l3.754666-1.301333c55.509333-19.221333 86.634667-75.2 65.834667-135.786667s-111.296-58.581333-140.672-176.896c-29.376-118.336 124.096-146.176 125.824-268.053333-4.352-106.389333-127.146667-66.154667-127.146667-66.154667l-150.72 55.04S93.781333 367.872 140.010667 490.666667c0 0 102.058667 322.517333 138.752 376.192z" fill="#8D6E63" /><path d="M533.333333 159.744a74.410667 53.162667 90 1 0 106.325334 0 74.410667 53.162667 90 1 0-106.325334 0Z" fill="#8D6E63" /><path d="M745.237333 866.858667c-36.693333 53.674667-79.637333 85.376-135.168 66.154666l-3.754666-1.301333c-55.509333-19.221333-86.634667-75.2-65.834667-135.786667s111.296-58.581333 140.672-176.896c29.376-118.336-124.096-146.176-125.824-268.053333 4.352-106.389333 127.146667-66.154667 127.146667-66.154667l150.72 55.04s97.024 28.010667 50.794666 150.805334c0 0-102.058667 322.517333-138.752 376.192z" fill="#8D6E63" /><path d="M405.333333 170.666667s4.373333-42.090667 32.192-42.090667S469.333333 170.666667 469.333333 170.666667s11.626667 45.546667-14.186666 59.413333C475.797333 219.754667 490.666667 192.170667 490.666667 159.744 490.666667 118.656 466.88 85.333333 437.525333 85.333333c-29.376 0-53.162667 33.322667-53.162666 74.410667 0 32.384 14.848 59.946667 35.456 70.314667C394.005333 216.149333 405.333333 170.666667 405.333333 170.666667zM324.714667 127.850667c-20.949333 0-37.952 23.914667-37.952 53.418666 0 29.482667 17.002667 53.397333 37.952 53.397334S362.666667 210.752 362.666667 181.269333c0-29.504-17.002667-53.418667-37.952-53.418666zM234.666667 192c-17.642667 0-31.893333 19.114667-31.893334 42.709333 0 23.594667 14.250667 42.730667 31.893334 42.730667s31.893333-19.114667 31.893333-42.730667C266.56 211.114667 252.309333 192 234.666667 192zM106.581333 306.261333c-11.754667 0-21.248 14.357333-21.248 32.042667s9.493333 32.042667 21.248 32.042667c11.776 0 21.269333-14.357333 21.269334-32.042667s-9.493333-32.042667-21.269334-32.042667zM164.16 247.104c-15.573333 0-28.202667 16.938667-28.202667 37.824s12.629333 37.824 28.202667 37.824c15.616 0 28.245333-16.938667 28.245333-37.824s-12.608-37.824-28.245333-37.824zM175.168 405.482667c9.557333-17.578667 27.562667-24.64 27.498667-24.64h-0.021334l1.408-0.405334 1.386667-0.512 149.717333-54.677333A137.109333 137.109333 0 0 1 390.613333 320c28.672 0 34.325333 9.749333 35.392 31.509333-1.045333 40.341333-27.050667 67.733333-57.130666 99.413334-39.466667 41.578667-72.085333 76.970667-50.986667 162.048 21.12 85.077333 99.946667 118.421333 135.978667 143.957333-35.690667-29.248-89.578667-51.562667-111.018667-137.898667-29.376-118.336 124.096-146.176 125.824-268.053333C466.218667 290.368 425.344 277.333333 390.613333 277.333333c-26.261333 0-49.066667 7.488-49.066666 7.488l-150.72 55.04S93.802667 367.872 140.032 490.666667c0 0 102.037333 322.517333 138.752 376.192 2.432 3.562667 4.928 6.869333 7.445333 10.218666-24.234667-37.994667-140.458667-417.514667-111.061333-471.594666zM618.666667 170.666667s-4.373333-42.090667-32.192-42.090667S554.666667 170.666667 554.666667 170.666667s-11.626667 45.546667 14.186666 59.413333C548.202667 219.754667 533.333333 192.170667 533.333333 159.744 533.333333 118.656 557.12 85.333333 586.474667 85.333333c29.376 0 53.162667 33.322667 53.162666 74.410667 0 32.384-14.848 59.946667-35.456 70.314667C629.994667 216.149333 618.666667 170.666667 618.666667 170.666667zM699.285333 127.850667c20.949333 0 37.952 23.914667 37.952 53.418666 0 29.482667-17.002667 53.397333-37.952 53.397334S661.333333 210.752 661.333333 181.269333c0-29.504 17.002667-53.418667 37.952-53.418666zM789.333333 192c17.642667 0 31.893333 19.114667 31.893334 42.709333 0 23.594667-14.250667 42.730667-31.893334 42.730667s-31.893333-19.114667-31.893333-42.730667C757.44 211.114667 771.690667 192 789.333333 192zM917.418667 306.261333c11.754667 0 21.248 14.357333 21.248 32.042667s-9.493333 32.042667-21.248 32.042667c-11.776 0-21.269333-14.357333-21.269334-32.042667s9.493333-32.042667 21.269334-32.042667zM859.84 247.104c15.573333 0 28.202667 16.938667 28.202667 37.824s-12.629333 37.824-28.202667 37.824c-15.616 0-28.245333-16.938667-28.245333-37.824s12.608-37.824 28.245333-37.824zM848.832 405.482667c-9.557333-17.578667-27.562667-24.64-27.498667-24.64h0.021334l-1.408-0.405334-1.386667-0.512-149.717333-54.677333A137.109333 137.109333 0 0 0 633.386667 320c-28.672 0-34.325333 9.749333-35.392 31.509333 1.045333 40.341333 27.050667 67.733333 57.130666 99.413334 39.466667 41.578667 72.085333 76.970667 50.986667 162.048-21.12 85.077333-99.946667 118.421333-135.978667 143.957333 35.690667-29.248 89.578667-51.562667 111.018667-137.898667 29.376-118.336-124.096-146.176-125.824-268.053333C557.781333 290.368 598.656 277.333333 633.386667 277.333333c26.261333 0 49.066667 7.488 49.066666 7.488l150.72 55.04s97.024 28.010667 50.794667 150.805334c0 0-102.037333 322.517333-138.752 376.192-2.432 3.562667-4.928 6.869333-7.445333 10.218666 24.234667-37.994667 140.458667-417.514667 111.061333-471.594666z" fill="#6D4C41" /></svg>