<svg width="100" viewBox="0 0 100 100" fill="none" class="w-20 text-red lg:w-28"><path d="M51.4402 1.38867L59.2973 2.19939L59.1268 3.86628L56.1037 3.55563L55.2096 12.2197L53.3988 12.034L54.2929 3.37L51.2697 3.05935L51.4402 1.39246V1.38867ZM58.04 8.97398C58.6234 6.85248 60.4077 5.76521 62.3966 6.31074C64.4234 6.86763 65.3402 8.5762 64.7605 10.6863L64.6204 11.194L59.5212 9.80742C59.3166 11.0349 59.7826 11.8077 60.8926 12.1145C61.8094 12.3684 62.5102 12.1752 62.8815 11.5842L64.431 12.0085C63.7377 13.4102 62.2602 13.9595 60.491 13.4746C58.4756 12.9215 57.4679 11.069 58.0437 8.97019L58.04 8.97398ZM59.8546 8.75046L63.2528 9.6824C63.5104 8.75046 63.033 7.95869 62.0329 7.68214C61.0479 7.40937 60.2978 7.78063 59.8546 8.74667V8.75046ZM72.2191 13.3251C72.7988 11.7264 72.0941 10.1921 70.3742 9.34731H70.3704C68.5103 8.43431 66.5441 9.17684 65.5857 11.1279C64.6007 13.1319 65.1993 15.0716 67.1124 16.0111C68.7566 16.818 70.4765 16.4127 71.3895 15.0413L69.8211 14.2722C69.3172 14.8784 68.5785 14.992 67.8019 14.6094C66.8093 14.1207 66.5593 13.0789 67.1427 11.8931C67.7261 10.7073 68.7566 10.2793 69.7529 10.768C70.4916 11.1316 70.8364 11.7567 70.6621 12.5599L72.2191 13.3251ZM70.7276 17.6624L70.7294 17.66L72.1065 18.708L74.4288 15.6545C75.0653 14.8173 76.0389 14.5938 76.9102 15.2567C77.6111 15.7909 77.7285 16.594 77.0163 17.5336L74.6523 20.6438L76.0313 21.6932L78.6453 18.2534C79.7477 16.8062 79.6833 15.3855 78.3043 14.3362C77.5012 13.7262 76.5768 13.5785 75.8154 13.855L78.5127 10.3015L77.1224 9.24457L70.7294 17.66L70.7276 17.6586V17.6624ZM85.3495 20.2216L84.6865 20.7557L84.0538 19.9715L82.9249 20.8807L83.5576 21.6649L79.2237 25.1616L80.3033 26.4989L84.6373 23.0022L85.6904 24.3054L86.8194 23.3962L85.7662 22.093L86.4292 21.5589C86.9709 21.1232 87.4596 21.002 88.0127 21.6877L88.3953 22.165L89.547 21.2369C89.403 20.9679 89.2098 20.7027 89.0394 20.4943C88.0847 19.3124 86.8307 19.0282 85.3495 20.2216ZM89.4866 27.2148C90.5815 29.0938 90.0738 31.2153 88.1834 32.314C86.293 33.4126 84.1981 32.8102 83.1032 30.9312C82.0084 29.0522 82.516 26.9307 84.4064 25.832C86.2968 24.7334 88.3918 25.3358 89.4866 27.2148ZM84.4405 30.1546C85.0429 31.185 86.2059 31.4616 87.3083 30.8175C88.4107 30.1735 88.7479 29.0256 88.1455 27.9952C87.5432 26.9648 86.3802 26.6882 85.2777 27.3322C84.1753 27.9763 83.8382 29.1241 84.4405 30.1546ZM91.723 36.3884L91.9465 36.9869L91.9503 36.9907L93.4543 36.4263C93.4202 36.1346 93.3596 35.8997 93.2762 35.6724C92.9466 34.7935 92.2723 34.3351 91.5146 34.301L92.4352 33.8464L91.8594 32.3159L85.3055 34.7821L85.9154 36.4035L89.1052 35.2026C90.3819 34.7215 91.2835 35.2178 91.723 36.3884ZM87.953 42.8157L98.3067 41.9974L98.4507 43.812L94.1736 44.1492L94.5372 48.7369L98.8143 48.3998L98.9583 50.2144L88.6046 51.0327L88.4607 49.2181L92.8514 48.8695L92.4877 44.2818L88.097 44.6303L87.953 42.8157ZM95.177 54.7211L95.3247 52.9936L88.3314 52.3951L88.1836 54.1226L95.177 54.7211ZM98.7343 54.1567C98.7835 53.5619 98.3706 53.0543 97.791 53.005V53.0012C97.2113 52.952 96.7037 53.3801 96.6544 53.9748C96.6052 54.5431 97.0333 55.0469 97.6129 55.1C98.1925 55.153 98.685 54.7211 98.7343 54.1567ZM92.5738 60.7222L92.695 60.0934C92.9337 58.8659 92.426 57.9719 91.085 57.7142L87.736 57.0664L88.0656 55.3655L94.9415 56.6952L94.6309 58.2977L93.608 58.203C94.2369 58.6273 94.5703 59.3736 94.3922 60.2941C94.3468 60.5328 94.271 60.7639 94.1498 61.0291L92.5738 60.726V60.7222ZM92.9521 65.3362C93.6492 63.3966 92.7059 61.5327 90.6336 60.7864V60.7826C88.5879 60.0476 86.6634 60.9076 85.955 62.8738C85.3337 64.6013 85.7694 66.1166 87.1104 66.916L87.656 65.4044C87.0953 64.9915 86.9589 64.2755 87.2809 63.3814C87.6711 62.3017 88.4818 61.8964 89.6865 62.1956L87.9098 67.1736L88.4061 67.3516C90.4632 68.0941 92.2399 67.3137 92.9521 65.3362ZM89.5236 65.9272L90.717 62.6124C91.6489 63.1276 91.9596 63.9042 91.611 64.8664C91.2587 65.8438 90.4329 66.253 89.5236 65.9272ZM91.8689 75.229L91.8671 75.2314L90.5127 74.2478L88.7246 76.7064L81.6782 71.5845L80.6098 73.0544L87.6562 78.1763L85.8681 80.635L87.2244 81.62L91.8671 75.2314L91.8689 75.2327V75.229ZM82.1251 82.226C83.5912 80.7788 83.5458 78.6914 82.0001 77.123L82.0039 77.1154C80.4772 75.5698 78.3709 75.5129 76.882 76.979C75.575 78.2671 75.3136 79.8203 76.1774 81.1235L77.3215 79.9984C76.9957 79.3847 77.1813 78.68 77.8594 78.0133C78.6777 77.2064 79.5831 77.1912 80.5416 77.983L76.7873 81.7032L77.1548 82.0782C78.6891 83.639 80.6287 83.7034 82.1251 82.226ZM78.7762 81.2789L81.2841 78.8051C81.9016 79.6764 81.8448 80.506 81.1174 81.2258C80.3787 81.9532 79.4543 81.9684 78.7762 81.2789ZM75.5142 87.615C73.923 88.6833 72.2448 88.528 71.1462 87.2286L72.5858 86.2625C73.1957 86.8118 73.9079 86.8308 74.5936 86.3686C75.5142 85.7511 75.6581 84.6411 74.9232 83.5463C74.1844 82.4476 73.1616 82.1446 72.241 82.7659C71.5212 83.2508 71.2522 83.944 71.5288 84.6828L70.0778 85.6564C69.3429 84.1827 69.8505 82.4893 71.3697 81.4664C73.1389 80.2769 75.1202 80.7277 76.3628 82.5802C77.5751 84.3835 77.2417 86.4595 75.518 87.615H75.5142ZM72.242 93.5119L68.1392 83.772V83.7644L66.5405 84.4388L68.0293 87.9733C68.4384 88.9432 68.1467 89.8978 67.139 90.3221C66.3283 90.6631 65.5706 90.3676 65.1122 89.2803L63.5969 85.6814L61.9982 86.3557L63.6764 90.3373C64.3811 92.0155 65.6426 92.6709 67.2413 91.9966C68.1695 91.6064 68.7604 90.879 68.9006 90.0797L70.6319 94.1901L72.242 93.5119ZM58.6042 95.1596L58.4758 94.3217L59.4679 94.1671L59.2482 92.7351L58.2518 92.8904L57.3994 87.3859L55.7023 87.6473L56.5546 93.1518L54.8991 93.4094L55.1188 94.8414L56.7744 94.5838L56.9032 95.4248C57.0092 96.1105 56.8691 96.5916 55.9977 96.728L55.3954 96.8227L55.6227 98.2812C55.9258 98.2888 56.2516 98.2547 56.5168 98.2131C58.0207 97.982 58.8959 97.0424 58.6042 95.1596ZM46.7535 91.5964C46.7914 93.7861 48.3901 95.2636 50.5646 95.2295C52.7392 95.1954 54.2886 93.6611 54.2545 91.4752C54.2166 89.2855 52.6179 87.8081 50.4434 87.8422C48.2689 87.8763 46.7194 89.4105 46.7535 91.5964ZM48.4886 91.5699C48.4659 90.2895 49.2766 89.4105 50.4699 89.3916C51.6633 89.3689 52.5043 90.225 52.5232 91.5017C52.5459 92.7822 51.7352 93.6573 50.5419 93.6801C49.3485 93.7028 48.5075 92.8466 48.4886 91.5699ZM40.7904 92.474L40.7935 92.4745L40.5328 94.0538C40.8018 94.1712 41.0366 94.2394 41.2753 94.2773C42.2035 94.4288 42.9384 94.0765 43.3438 93.4363L43.2756 94.4629L44.8857 94.7281L46.0184 87.8181L44.3098 87.5378L43.7567 90.9018C43.537 92.2467 42.6581 92.7771 41.4231 92.5763L40.7935 92.4745L40.7942 92.4702L40.7904 92.474ZM33.2667 95.4838L37.7332 86.1076L36.0928 85.3272L34.1986 89.305L30.0428 87.3236L31.937 83.3458L30.2966 82.5654L25.8301 91.9417L27.4705 92.7221L29.3154 88.8466L33.4713 90.8279L31.6263 94.7034L33.2667 95.4838ZM23.9849 89.5259C23.6515 90.0033 23.0075 90.1056 22.5188 89.7646C22.0528 89.4388 21.9316 88.7986 22.2649 88.3213C22.5983 87.8439 23.2537 87.7303 23.7159 88.0561C24.2046 88.397 24.3182 89.0524 23.9849 89.5297V89.5259ZM25.2312 87.4007L23.8106 86.4081L27.8376 80.6611L29.2583 81.6537L25.2312 87.4007ZM20.401 81.556L19.9198 81.1355L18.8667 82.3478C19.0371 82.5902 19.2 82.7683 19.3819 82.9274C20.0903 83.5449 20.901 83.6282 21.5829 83.2986L20.9844 84.1359L22.2156 85.208L26.8147 79.9232L25.5077 78.7867L23.2688 81.359C22.3709 82.3856 21.3443 82.3781 20.401 81.556ZM20.8425 79.426C19.1604 80.8466 17.073 80.733 15.7433 79.157C14.3871 77.5507 14.5992 75.6224 16.2699 74.2132L16.6715 73.8722L20.0924 77.8993C20.9523 77.0052 21.0092 76.0998 20.2666 75.2209C19.6529 74.4935 18.9672 74.2548 18.327 74.5352L17.2928 73.3077C18.6566 72.5463 20.1871 72.9251 21.3691 74.3268C22.7177 75.9217 22.5018 78.0205 20.8387 79.4222L20.8425 79.426ZM19.221 78.5849L16.948 75.8952C16.2093 76.5203 16.1525 77.4409 16.823 78.2326C17.4822 79.013 18.308 79.1343 19.221 78.5849ZM4.50307 66.0802L7.7194 73.2933H7.72319L9.2537 72.6114L8.0149 69.8345L15.9667 66.2885L15.2242 64.6292L7.27237 68.1752L6.03357 65.3983L4.50307 66.0802ZM10.9981 63.7917C8.86527 64.3448 7.03548 63.3371 6.51647 61.3444C5.98988 59.31 7.01654 57.6621 9.13424 57.1128L9.64189 56.9802L10.983 62.0907C12.146 61.655 12.5893 60.8671 12.3013 59.7533C12.0627 58.8327 11.5474 58.3213 10.8504 58.2947L10.4488 56.7415C12.0096 56.6468 13.2257 57.6507 13.6841 59.4237C14.2069 61.4467 13.1045 63.2424 11.0019 63.7879L10.9981 63.7917ZM9.8995 62.3294L9.0168 58.9198C8.08107 59.1623 7.63026 59.9692 7.89165 60.9731C8.14926 61.9619 8.84254 62.4279 9.90329 62.3294H9.8995ZM7.69664 49.337C6.02217 49.6325 5.04477 51.0077 5.17358 52.9208V52.9246C5.30996 54.9931 6.93896 56.3228 9.10592 56.1788C11.3335 56.0311 12.7125 54.5422 12.5723 52.417C12.4473 50.5872 11.2388 49.2991 9.59462 49.1968L9.71206 50.9395C10.4887 51.0721 10.9546 51.6555 11.0115 52.5192C11.0835 53.6255 10.3068 54.3604 8.98848 54.4475C7.67012 54.5347 6.78364 53.8528 6.71166 52.7465C6.65862 51.9245 7.02988 51.3145 7.81029 51.0645L7.69664 49.337ZM12.1963 48.4597L1.7063 47.149L1.92224 45.4139L6.35086 45.967C5.72956 45.4442 5.3924 44.5729 5.51741 43.5727C5.73335 41.8528 6.93048 41.0875 8.73754 41.3111L13.0222 41.849L12.8063 43.5689L8.93075 43.084C7.76014 42.9363 7.12369 43.4439 7.01382 44.319C6.87744 45.4063 7.55935 46.1337 8.60495 46.2663L12.4123 46.7436L12.1963 48.4635V48.4597ZM7.88353 34.8217L7.08924 34.5154C5.31249 33.8297 4.93744 32.6022 5.48297 31.1816C5.58146 30.9316 5.71027 30.6285 5.87317 30.3709L7.25214 30.905L7.03242 31.4733C6.71419 32.2954 7.06272 32.6591 7.71054 32.9091L8.5061 33.216L9.11224 31.6514L10.4647 32.1741L9.85855 33.7388L15.0524 35.7504L14.4311 37.3529L9.23726 35.3412L8.87357 36.2808L7.52112 35.758L7.88353 34.8217ZM11.0935 27.4326C12.177 25.5498 14.2682 24.9322 16.1624 26.0233C18.0604 27.1144 18.5794 29.2321 17.4959 31.1149C16.4124 32.9977 14.3212 33.6152 12.4271 32.5242C10.5329 31.4331 10.0101 29.3154 11.0935 27.4326ZM16.1548 30.3421C16.7496 29.3078 16.4086 28.16 15.3024 27.5235C14.1962 26.8871 13.0332 27.1674 12.4384 28.2016C11.8436 29.2359 12.1846 30.3837 13.2908 31.0202C14.4008 31.6566 15.56 31.3763 16.1548 30.3421ZM17.9355 20.926L18.3408 20.4335L17.102 19.4144C16.8671 19.5887 16.6891 19.7591 16.5376 19.9448C15.9428 20.6683 15.8784 21.4791 16.2269 22.1534L15.3745 21.5813L14.3365 22.8429L19.7463 27.2904L20.8487 25.9531L18.2158 23.7862C17.1626 22.9186 17.1399 21.892 17.9355 20.926ZM25.381 20.9735L19.4824 12.4269L20.9789 11.3927L23.4148 14.9235L27.2032 12.3095L24.7672 8.7787L26.2637 7.74447L32.1622 16.2911L30.6658 17.3253L28.1654 13.6998L24.377 16.3138L26.8774 19.9393L25.381 20.9735ZM29.8079 5.96098C29.2662 6.2148 29.0351 6.82473 29.2813 7.35131H29.2851C29.5314 7.8779 30.1526 8.1052 30.6944 7.85138C31.2058 7.61271 31.4331 6.98763 31.1869 6.46104C30.9406 5.93446 30.3231 5.71852 29.8079 5.96098ZM32.0696 8.7568L30.5012 9.49175L33.4751 15.8487L35.0434 15.1137L32.0696 8.7568ZM38.586 8.01742L38.5849 8.01782L38.0632 6.50206C37.7715 6.52858 37.5329 6.57783 37.3055 6.65738C36.4191 6.96046 35.9417 7.62342 35.8849 8.37731L35.4568 7.44158L33.9112 7.97195L36.188 14.5941L37.8283 14.0296L36.7183 10.8057C36.2751 9.51762 36.7979 8.63113 37.9799 8.22578L38.5849 8.01782L38.586 8.0212V8.01742ZM42.3865 5.39253C40.3559 5.75621 39.2118 7.50266 39.5982 9.66962C39.9808 11.8063 41.6856 13.0489 43.7427 12.6814C45.546 12.3632 46.6446 11.2266 46.6673 9.66583L45.0876 9.94617C45.0118 10.6394 44.4587 11.113 43.523 11.2797C42.3902 11.4805 41.6401 10.9804 41.2954 9.78706L46.4931 8.84754L46.4021 8.32853C46.0157 6.17294 44.4549 5.02506 42.3865 5.39253ZM44.6064 8.07092L41.1401 8.68842C41.1211 7.62389 41.6401 6.9685 42.6479 6.79044C43.6669 6.6086 44.436 7.12003 44.6064 8.07092Z" fill="#D5333E" fill-rule="evenodd" clip-rule="evenodd" class="origin-center animate-anti-spin animate-ease-linear animate-duration-[7.5s]"></path><path d="M41.0328 56.9436C37.2033 56.9436 34.7223 54.2246 34.7223 50.0175C34.7223 45.8472 37.2932 43.0731 41.1407 43.0731C44.251 43.0731 46.5702 44.9286 47.0197 47.8129H44.5926C44.1431 46.2513 42.8307 45.3328 41.0867 45.3328C38.6596 45.3328 37.1314 47.1332 37.1314 49.9991C37.1314 52.8467 38.6776 54.6839 41.0867 54.6839C42.8666 54.6839 44.233 53.7286 44.6645 52.2405H47.0557C46.5522 55.0697 44.1431 56.9436 41.0328 56.9436Z" fill="#D5333E"></path><path d="M63.889 49.9991C63.889 54.0776 61.2641 56.9436 57.4885 56.9436C53.731 56.9436 51.1421 54.096 51.1421 49.9991C51.1421 45.9206 53.749 43.0547 57.5065 43.0547C61.2641 43.0547 63.889 45.9023 63.889 49.9991ZM61.4618 49.9991C61.4618 47.1332 59.9157 45.3144 57.5065 45.3144C55.0974 45.3144 53.5512 47.1332 53.5512 49.9991C53.5512 52.8651 55.0974 54.6839 57.5065 54.6839C59.9157 54.6839 61.4618 52.8283 61.4618 49.9991Z" fill="#D5333E"></path></svg>