<svg width="103" viewBox="0 0 103 100" fill="none" class="w-full"><path d="M63.8678 88.2791C72.6036 88.2791 79.6853 81.2117 79.6853 72.4936C79.6853 63.7754 72.6036 56.708 63.8678 56.708C55.132 56.708 48.0503 63.7754 48.0503 72.4936C48.0503 81.2117 55.132 88.2791 63.8678 88.2791Z" fill="#AA7E2B" stroke="black" stroke-width="2" stroke-miterlimit="10" stroke-linecap="round" stroke-linejoin="round"></path><path d="M55.6783 67.9169C55.6783 67.9169 56.1321 65.506 58.4456 66.9825" stroke="black" stroke-width="2" stroke-miterlimit="10" stroke-linecap="round" stroke-linejoin="round"></path><path d="M65.3507 65.3148C65.3507 65.3148 66.0345 62.8242 68.217 64.4921" stroke="black" stroke-width="2" stroke-miterlimit="10" stroke-linecap="round" stroke-linejoin="round"></path><path d="M66.9582 66.2458C68.3099 65.8631 69.9045 67.2025 70.7321 69.3168L69.7926 70.2352L71.189 70.9974C71.5246 73.1532 70.8727 75.0315 69.5562 75.4014C68.0511 75.8256 66.2489 74.1226 65.5331 71.5938C64.8173 69.0649 65.4532 66.6699 66.9582 66.2458Z" fill="black"></path><path d="M58.0524 68.3348C59.4041 67.9521 60.9987 69.2883 61.8295 71.4026L60.8932 72.321L62.2896 73.0832C62.6283 75.239 61.9797 77.1173 60.6631 77.4904C59.1581 77.9177 57.3558 76.2148 56.6337 73.6859C55.9147 71.1571 56.5506 68.7621 58.0524 68.3348Z" fill="black"></path><path d="M62.4844 74.6172C62.4844 74.6172 60.6694 74.7192 60.9282 76.2787C61.1871 77.8381 63.3184 77.229 63.3184 77.229" fill="#AA7E2B"></path><path d="M62.4844 74.6172C62.4844 74.6172 60.6694 74.7192 60.9282 76.2787C61.1871 77.8381 63.3184 77.229 63.3184 77.229" stroke="black" stroke-width="2" stroke-miterlimit="10" stroke-linecap="round" stroke-linejoin="round"></path><path d="M66.7153 77.6918C65.3604 77.5579 63.98 78.5465 63.6796 79.8731C63.6317 80.0836 63.6093 80.31 63.6796 80.5141C63.8298 80.9351 64.3475 81.1328 64.7884 81.0626C65.2326 80.9957 65.6161 80.7278 65.9803 80.4695C66.1401 80.7437 65.8749 81.0594 65.7663 81.3592C65.5585 81.9268 66.0251 82.587 66.6162 82.7113C67.2074 82.8325 67.8273 82.5104 68.1948 82.0321C68.5623 81.5537 68.7189 80.9446 68.7955 80.3483" stroke="black" stroke-width="2" stroke-miterlimit="10" stroke-linecap="round" stroke-linejoin="round"></path><path d="M78.6396 63.7888C91.3462 63.7888 101.647 53.5089 101.647 40.828C101.647 28.1471 91.3462 17.8672 78.6396 17.8672C65.933 17.8672 55.6323 28.1471 55.6323 40.828C55.6323 53.5089 65.933 63.7888 78.6396 63.7888Z" fill="#E39B45" stroke="black" stroke-width="2" stroke-miterlimit="10" stroke-linecap="round" stroke-linejoin="round"></path><path d="M71.104 29.4724C71.104 29.4724 73.2993 26.6565 75.306 30.107" stroke="black" stroke-width="2" stroke-miterlimit="10" stroke-linecap="round" stroke-linejoin="round"></path><path d="M85.3461 32.5311C85.3461 32.5311 87.8929 29.7662 89.5992 33.3698" stroke="black" stroke-width="2" stroke-miterlimit="10" stroke-linecap="round" stroke-linejoin="round"></path><path d="M86.8067 34.8042C88.8103 35.2092 89.9766 37.9996 89.6379 41.2843L87.8101 41.8487L89.1043 43.7621C88.1009 46.7726 86.0047 48.7657 84.0554 48.3734C81.825 47.9238 80.6363 44.5211 81.3936 40.7741C82.1509 37.027 84.5795 34.3546 86.8067 34.8042Z" fill="black"></path><path d="M73.8968 31.5903C75.9003 31.9921 77.0699 34.7825 76.7344 38.0672L74.9097 38.6316L76.2071 40.5419C75.2069 43.5555 73.1139 45.5518 71.1647 45.1595C68.9342 44.7131 67.7391 41.3104 68.4933 37.5633C69.2474 33.8163 71.6664 31.1407 73.8968 31.5903Z" fill="black"></path><path d="M75.4336 42.6585C75.4336 42.6585 73.0178 41.5838 72.3116 43.7714C71.6054 45.9591 74.7657 46.5905 74.7657 46.5905" fill="#E39B45"></path><path d="M75.4336 42.6585C75.4336 42.6585 73.0178 41.5838 72.3116 43.7714C71.6054 45.9591 74.7657 46.5905 74.7657 46.5905" stroke="black" stroke-width="2" stroke-miterlimit="10" stroke-linecap="round" stroke-linejoin="round"></path><path d="M72.5068 49.7803C72.5068 49.7803 75.6799 56.3113 83.1126 52.3187" stroke="black" stroke-width="2" stroke-miterlimit="10" stroke-linecap="round" stroke-linejoin="round"></path><path d="M83.0454 50.1465C83.0454 50.1465 82.5884 52.8252 84.9307 53.5651" stroke="black" stroke-width="2" stroke-miterlimit="10" stroke-linecap="round" stroke-linejoin="round"></path><path d="M32.3155 74.9614C49.6106 74.9614 63.631 60.9693 63.631 43.7092C63.631 26.4491 49.6106 12.457 32.3155 12.457C15.0204 12.457 1 26.4491 1 43.7092C1 60.9693 15.0204 74.9614 32.3155 74.9614Z" fill="#F7F5CD" stroke="black" stroke-width="2" stroke-miterlimit="10" stroke-linecap="round" stroke-linejoin="round"></path><path d="M45.5675 30.7868C45.5675 30.7868 43.6343 26.2361 40.049 30.2893" stroke="black" stroke-width="2" stroke-miterlimit="10" stroke-linecap="round" stroke-linejoin="round"></path><path d="M26.5861 30.3436C26.5861 30.3436 24.1959 25.7483 20.9397 30.1076" stroke="black" stroke-width="2" stroke-miterlimit="10" stroke-linecap="round" stroke-linejoin="round"></path><path d="M40.8125 32.9333C43.4775 32.8536 45.7974 35.6344 46.363 39.3496L44.2189 40.453L46.4397 42.2261C46.0786 45.8169 44.0239 48.5722 41.4324 48.6487C38.4702 48.738 35.9298 45.2907 35.7605 40.9505C35.5879 36.6102 37.8503 33.0226 40.8125 32.9333Z" fill="black"></path><path d="M23.4739 32.7674C26.1389 32.6845 28.462 35.4621 29.034 39.1805L26.8898 40.2839L29.1139 42.0538C28.756 45.6446 26.7045 48.4031 24.1162 48.4828C21.154 48.5753 18.6104 45.1312 18.4346 40.791C18.2557 36.4507 20.5117 32.8599 23.4739 32.7674Z" fill="black"></path><path d="M40.065 56.876C40.065 56.876 30.9675 57.5457 23.7969 56.9174C23.7969 56.9174 26.7079 63.3592 31.188 63.474C34.6167 63.5601 37.0293 62.6257 40.065 56.876Z" fill="white" stroke="black" stroke-width="2" stroke-miterlimit="10" stroke-linecap="round" stroke-linejoin="round"></path><path d="M30.2131 46.0274C30.2131 46.0274 26.8259 45.345 26.5926 48.5595C26.3594 51.774 30.5582 51.6082 30.5582 51.6082" fill="#F7F5CD"></path><path d="M30.2131 46.0274C30.2131 46.0274 26.8259 45.345 26.5926 48.5595C26.3594 51.774 30.5582 51.6082 30.5582 51.6082" stroke="black" stroke-width="2" stroke-miterlimit="10" stroke-linecap="round" stroke-linejoin="round"></path></svg>