<svg width="100" viewBox="0 0 100 100" fill="none" class="w-full"><path d="M22.7531 85.8977C30.6221 85.3363 36.5461 78.5021 35.9847 70.6331C35.4233 62.7641 28.5891 56.8401 20.7201 57.4015C12.851 57.9629 6.92702 64.7971 7.48842 72.6661C8.04982 80.5351 14.884 86.4591 22.7531 85.8977Z" fill="#A16931" stroke="black" stroke-width="2" stroke-miterlimit="10"></path><path d="M25.2236 83.6214C33.0927 83.06 39.0167 76.2258 38.4553 68.3567C37.8939 60.4877 31.0597 54.5637 23.1906 55.1251C15.3216 55.6865 9.39761 62.5207 9.959 70.3897C10.5204 78.2588 17.3546 84.1828 25.2236 83.6214Z" fill="#C0996C" stroke="black" stroke-width="2" stroke-miterlimit="10"></path><path d="M25.079 75.7523C23.4194 75.8014 21.847 74.8049 21.2168 73.0944L24.0534 72.0605C24.2519 72.5776 24.8018 72.8386 25.2959 72.6417C25.7917 72.4678 26.074 71.8933 25.8771 71.3992C25.6802 70.9051 25.1287 70.621 24.6116 70.8196C22.54 71.5679 20.2945 70.5271 19.5232 68.4571C18.9209 66.8139 19.4627 65.0198 20.7744 63.9792L20.3165 62.7415L22.8379 61.8225L23.299 63.1062C24.8946 63.1309 26.3981 64.1324 26.9725 65.7082L24.1589 66.7405C23.9849 66.2447 23.4104 65.9624 22.8933 66.1609C22.3976 66.3349 22.1382 66.9077 22.3122 67.4035C22.4861 67.8992 23.059 68.1586 23.5547 67.9847C24.7251 67.5547 26.0071 67.7173 27.0231 68.3609C27.7716 68.8156 28.3526 69.5133 28.694 70.4129C29.27 72.0117 28.7692 73.7336 27.5725 74.766L27.9745 75.8691L25.4531 76.7881L25.079 75.7523Z" fill="black"></path><path d="M13.157 36.6943C10.2322 37.6114 9.5878 40.6848 12.0168 42.2712C18.5356 46.5096 28.4748 54.5651 30.8295 65.1983C33.556 77.5666 43.4952 84.8289 48.0311 87.5802C49.3447 88.3733 51.1541 88.4477 52.5917 87.8032L77.3282 76.5999C79.6581 75.5341 80.1539 73.0555 78.2949 71.5188C73.7095 67.6521 66.3728 60.365 64.5138 51.9873C62.2831 41.8994 48.5764 32.3071 43.4704 29.0354C42.3055 28.2918 40.7439 28.0935 39.3311 28.5397L13.157 36.6943Z" fill="#26301E" stroke="black" stroke-width="2" stroke-miterlimit="10"></path><path d="M18.6351 30.6714C15.7104 31.6629 15.0659 35.009 17.495 36.7192C24.0137 41.3295 33.953 50.0789 36.3076 61.6541C39.0341 75.1129 48.9733 82.9949 53.5092 85.9692C54.8229 86.8367 56.6322 86.9359 58.0698 86.2171L82.8064 74.0471C85.1363 72.907 85.632 70.1805 83.773 68.5198C79.1876 64.331 71.8509 56.3994 69.992 47.2781C67.7612 36.2979 54.0545 25.8877 48.9486 22.3185C47.7836 21.5006 46.2221 21.3023 44.8093 21.7732L18.6351 30.6714Z" fill="#647E4E" stroke="black" stroke-width="2" stroke-miterlimit="10"></path><path d="M23.7406 22.5159C20.7911 23.6065 20.1467 27.2748 22.6005 29.1834C29.1192 34.2645 39.0585 43.8567 41.4131 56.5968C44.1396 71.3693 54.0788 80.0692 58.6147 83.341C59.9284 84.3077 61.7377 84.382 63.1753 83.6137L87.9119 70.2292C90.2418 68.9651 90.7375 65.9907 88.8785 64.1318C84.2931 59.5216 76.9564 50.8216 75.0974 40.7833C72.8667 28.7124 59.16 17.2612 54.0541 13.345C52.8891 12.4527 51.3276 12.2297 49.9148 12.7502L23.7406 22.5159Z" fill="#B1CC87" stroke="black" stroke-width="2" stroke-miterlimit="10"></path><path d="M56.4088 55.3361C61.7475 55.3361 66.0754 51.0082 66.0754 45.6695C66.0754 40.3308 61.7475 36.0029 56.4088 36.0029C51.0701 36.0029 46.7422 40.3308 46.7422 45.6695C46.7422 51.0082 51.0701 55.3361 56.4088 55.3361Z" fill="white" stroke="black" stroke-width="2" stroke-miterlimit="10"></path><path d="M69.9644 47.9446C78.0634 50.2846 86.5387 45.5716 88.8944 37.4179C91.2502 29.2642 86.5943 20.7575 78.4952 18.4175C70.3962 16.0776 61.9209 20.7905 59.5651 28.9442C57.2094 37.0979 61.8653 45.6047 69.9644 47.9446Z" fill="#A16931" stroke="black" stroke-width="2" stroke-miterlimit="10"></path><path d="M68.3158 45.5286C76.4149 47.8686 84.8902 43.1556 87.2459 35.0019C89.6016 26.8482 84.9457 18.3415 76.8467 16.0015C68.7476 13.6616 60.2723 18.3745 57.9166 26.5282C55.5608 34.6819 60.2167 43.1887 68.3158 45.5286Z" fill="#C0996C" stroke="black" stroke-width="2" stroke-miterlimit="10"></path><path d="M69.3159 36.8359C67.8352 35.8405 67.1234 33.9578 67.6669 32.0767L70.7654 32.9719C70.6003 33.5434 70.919 34.1256 71.463 34.2828C72.007 34.44 72.6108 34.1242 72.769 33.5766C72.9272 33.0289 72.6154 32.4228 72.0478 32.2588C69.7771 31.6028 68.5024 29.2737 69.1628 26.9877C69.6857 25.178 71.2918 23.965 73.0585 23.882L73.4437 22.5486L76.2111 23.3481L75.8052 24.753C77.147 25.7857 77.8252 27.607 77.323 29.3453L74.2481 28.4569C74.4064 27.9093 74.0946 27.3032 73.5269 27.1392C72.9592 26.9752 72.4028 27.3046 72.2377 27.8761C72.0726 28.4476 72.3981 29.006 72.9421 29.1632C74.243 29.5391 75.2231 30.493 75.6743 31.6812C76.0356 32.5595 76.0885 33.5294 75.8064 34.5057C75.2973 36.2678 73.7828 37.4298 72.0734 37.5809L71.7225 38.7954L68.9551 37.9958L69.2922 36.829L69.3159 36.8359Z" fill="black"></path></svg>