<svg width="100" viewBox="0 0 100 100" fill="none" class="w-full"><path d="M44.4798 51.2109C44.4654 51.2784 44.4461 51.3458 44.4317 51.418L44.4221 51.2109H44.4798Z" fill="white"></path><path d="M72.6871 51.2932C72.6487 51.2788 72.6102 51.2595 72.5718 51.2402C72.6102 51.2499 72.6535 51.2691 72.6871 51.2932Z" fill="white"></path><path d="M45.0757 49.7324C45.0757 49.7324 45.0613 49.7517 45.0565 49.7661H45.0805V49.7324H45.0757ZM44.4175 51.211L44.4271 51.4181C44.4415 51.3459 44.4607 51.2785 44.4751 51.211H44.4175Z" fill="white"></path><path d="M45.2197 49.5059C45.1716 49.5781 45.1236 49.6503 45.0755 49.7322C45.0755 49.7419 45.0611 49.7515 45.0563 49.7659H45.2533C45.2389 49.6792 45.2245 49.5926 45.2197 49.5059ZM44.4221 51.2108L44.4317 51.4179C44.4461 51.3457 44.4654 51.2783 44.4798 51.2108H44.4221Z" fill="black"></path><path d="M78.9429 16.9191C78.3808 15.1804 77.1268 13.9619 75.3155 13.3936L74.6332 13.1768C72.8027 12.5989 71.2172 12.8734 69.9152 13.986C68.8678 14.8866 68.0222 16.346 67.4072 18.3158L59.1625 42.6189C58.9223 43.3173 58.4274 43.64 58.1728 43.6015C57.9806 43.5678 57.7692 43.1825 57.7548 42.407L57.1158 15.8643C57.1158 13.9956 57.1158 8.30273 51.8067 8.30273C47.7036 8.33163 45.1524 11.3418 45.1524 16.1581V39.0645C44.4029 36.3337 41.9045 34.3445 38.9834 34.3445C38.8825 34.3445 38.7768 34.3493 38.6759 34.3542C35.8556 34.4842 33.5446 36.4252 32.7999 39.0019C32.5981 38.7226 32.3675 38.4577 32.108 38.2168C31.0606 37.2391 29.6865 36.7238 28.2644 36.7816L27.6926 36.8008C26.2657 36.849 24.9396 37.4559 23.9643 38.5058C22.989 39.5558 22.4797 40.9236 22.5325 42.3541L22.84 51.2064C22.7824 51.269 22.7199 51.3317 22.6623 51.3943C21.5092 52.6802 20.9663 54.5634 21.1777 56.5574C21.6293 60.8294 22.1482 65.4001 22.7151 70.149C24.9012 88.5377 41.6307 90.6328 43.5573 90.8158C43.8312 90.8591 46.6755 91.3456 50.4999 91.3456C55.857 91.3456 63.1407 90.3968 67.9405 85.9609C76.5022 78.0622 77.6025 67.5915 77.6025 59.3556C77.6025 54.5441 75.4644 51.7362 73.6723 50.2287C73.5042 50.0891 73.3168 49.9783 73.115 49.9012C73.1054 49.8964 73.0958 49.8916 73.0814 49.8868C72.6105 49.6748 71.9763 49.4726 71.2124 49.2847L78.77 22.1544C79.3705 20.2376 79.4282 18.4266 78.9429 16.9191ZM35.2935 37.4173C36.1871 36.4348 37.4123 35.8568 38.7431 35.7991C41.4865 35.6738 43.8168 37.8123 43.9417 40.5576L44.2924 48.3504C43.9561 48.7501 43.6726 49.2221 43.4468 49.7664C43.3507 49.9927 43.2642 50.2335 43.1874 50.4888C43.1153 50.72 43.0528 50.9608 43 51.2112C42.7886 52.1745 42.6877 53.2871 42.7069 54.5538C42.7165 55.1992 42.8414 55.7916 43.0672 56.331C42.5532 56.6922 41.9334 56.9186 41.2607 56.9475L38.1426 57.0872C36.2496 57.1642 34.6593 55.7097 34.5728 53.8217L34.4575 51.2112L34.3902 49.7664L33.9962 41.0103C33.9338 39.6762 34.395 38.4047 35.2935 37.4173ZM27.7455 38.2457L28.3172 38.2217H28.4566C29.4511 38.2217 30.3928 38.5925 31.1231 39.2764C31.887 39.9892 32.329 40.9573 32.3675 42.0073L32.6413 49.7664L32.6654 50.4888L32.6942 51.2112L32.7278 52.1938C32.7903 53.9036 31.4498 55.3436 29.7442 55.4063L27.5341 55.4833C25.8141 55.5459 24.3919 54.2022 24.3294 52.4924L24.3054 51.847L24.2766 51.0138L24.2478 50.2191L23.9691 42.3059C23.8922 40.1434 25.5882 38.3228 27.7455 38.2457ZM72.5721 51.2401C72.6105 51.2498 72.6538 51.269 72.6874 51.2931C72.7114 51.3028 72.7306 51.322 72.7498 51.3365C75.0128 53.2437 76.1611 55.9409 76.1611 59.3556C76.1611 67.2977 75.1137 77.3783 66.9651 84.9013C59.2586 92.015 44.4317 89.5009 43.812 89.3901C43.7591 89.3805 43.7159 89.3757 43.663 89.3709C41.8805 89.2023 26.1984 87.2421 24.1469 69.9756C23.5799 65.2315 23.0658 60.6657 22.6094 56.4032C22.4989 55.3629 22.6527 54.3419 23.0226 53.4894C23.5175 55.4785 25.3144 56.933 27.4236 56.933C27.4764 56.933 27.5293 56.9282 27.5821 56.9282L29.7922 56.8512C31.2432 56.7982 32.5164 56.0661 33.3092 54.968C33.8809 57.039 35.7787 58.5369 37.9888 58.5369C38.0609 58.5369 38.133 58.5369 38.2098 58.532L41.3232 58.3924C42.2457 58.349 43.1009 58.0504 43.8168 57.564C46.589 60.9402 53.988 61.6723 58.7734 61.7782C59.2346 61.7879 59.6574 61.9853 59.9553 62.3417C60.2484 62.6885 60.3781 63.1509 60.306 63.6036L59.9361 66.0744L60.6471 66.1803L61.3582 66.2911L61.5408 65.0581L61.7282 63.8204C61.8579 62.9582 61.6129 62.0768 61.0507 61.4122C60.4934 60.7427 59.6718 60.3526 58.8022 60.3333C55.9002 60.2659 47.4442 59.8035 44.8882 56.5718C44.7248 56.3647 44.5855 56.148 44.475 55.9216C44.3308 55.6326 44.23 55.3244 44.1819 54.9969C44.1579 54.8476 44.1435 54.6934 44.1435 54.5345C44.1243 53.2389 44.2396 52.2179 44.4269 51.4184L44.4173 51.2112H44.475C44.5471 50.9464 44.6239 50.7055 44.7056 50.4888C44.8113 50.2095 44.9314 49.9735 45.0515 49.7664C45.0515 49.7519 45.0659 49.7423 45.0708 49.7326C45.1188 49.6508 45.1668 49.5785 45.2149 49.5063C45.3542 49.3088 45.4936 49.1499 45.6281 49.0198C45.6713 48.9813 45.7098 48.9428 45.753 48.9042C45.7962 48.8705 45.8395 48.8368 45.8827 48.8079C46.1374 48.6201 46.3824 48.5189 46.589 48.4611C46.9061 48.3648 47.1319 48.3744 47.1655 48.3793C51.0765 48.5334 59.2826 49.0006 65.4373 49.7664C66.9075 49.9494 68.2576 50.1468 69.4059 50.3684C69.6269 50.4069 69.8383 50.4503 70.0401 50.4888H70.1217V50.5081C70.3668 50.561 70.5974 50.614 70.8184 50.667C71.5631 50.8452 72.1589 51.0379 72.5625 51.2401H72.5721ZM77.3911 21.7306L69.7998 48.9813C62.4489 47.5557 47.9775 46.9681 47.2712 46.9392C47.2136 46.9344 46.9589 46.9151 46.5938 46.9729V16.1581C46.5938 14.6651 46.9686 9.78134 51.8116 9.74763C54.5213 9.74763 55.6744 11.5778 55.6744 15.8836L56.3134 42.4359C56.3471 44.5985 57.5722 44.9645 57.947 45.0271C58.9896 45.1909 60.0754 44.3817 60.527 43.091L68.7765 18.7638C69.3146 17.0395 70.0161 15.8017 70.852 15.0841C71.7649 14.3039 72.8604 14.1305 74.2008 14.5543L74.8831 14.771C76.2476 15.1997 77.1508 16.0763 77.5688 17.367C77.958 18.5711 77.8955 20.122 77.3911 21.7306Z" fill="black"></path><path d="M76.1613 59.3561C76.1613 67.2982 75.1139 77.3787 66.9653 84.9018C59.2588 92.0155 44.4319 89.5014 43.8121 89.3906C43.7593 89.381 43.716 89.3762 43.6632 89.3714C41.8807 89.2028 26.1986 87.2426 24.147 69.9761C23.5801 65.232 23.066 60.6662 22.6096 56.4037C22.4991 55.3634 22.6528 54.3423 23.0228 53.4898C23.5176 55.479 25.3145 56.9335 27.4237 56.9335C27.4766 56.9335 27.5294 56.9287 27.5823 56.9287L29.7924 56.8516C31.2434 56.7987 32.5166 56.0666 33.3093 54.9685C33.8811 57.0395 35.7789 58.5373 37.989 58.5373C38.0611 58.5373 38.1331 58.5373 38.21 58.5325L41.3234 58.3929C42.2458 58.3495 43.101 58.0509 43.8169 57.5644C46.5892 60.9407 53.9882 61.6728 58.7735 61.7787C59.2348 61.7883 59.6576 61.9858 59.9555 62.3422C60.2485 62.689 60.3783 63.1514 60.3062 63.6041L59.9362 66.0749L60.6473 66.1808L61.3584 66.2916L61.541 65.0586L61.7283 63.8208C61.8581 62.9587 61.613 62.0773 61.0509 61.4127C60.4936 60.7432 59.672 60.3531 58.8024 60.3338C55.9004 60.2664 47.4444 59.804 44.8883 56.5723C44.725 56.3652 44.5857 56.1485 44.4752 55.9221C44.331 55.6331 44.2301 55.3249 44.1821 54.9974C44.1581 54.848 44.1436 54.6939 44.1436 54.535C44.1244 53.2394 44.2397 52.2183 44.4271 51.4188C44.4415 51.3466 44.4607 51.2792 44.4752 51.2117C44.5472 50.9468 44.6241 50.706 44.7058 50.4893C44.8115 50.2099 44.9316 49.9739 45.0517 49.7668H45.2487C45.2343 49.6801 45.2199 49.5935 45.2151 49.5068C45.3544 49.3093 45.4937 49.1504 45.6282 49.0203C45.6715 48.9818 45.7099 48.9433 45.7532 48.9047C45.7964 48.871 45.8396 48.8373 45.8829 48.8084C46.1375 48.6206 46.3826 48.5194 46.5892 48.4616C46.9063 48.3653 47.1321 48.3749 47.1657 48.3797C51.0766 48.5339 59.2828 49.001 65.4375 49.7668C66.9077 49.9499 68.2578 50.1473 69.406 50.3689C69.6271 50.4074 69.8385 50.4508 70.0402 50.4893H70.1219V50.5085C70.367 50.5615 70.5976 50.6145 70.8186 50.6675C71.5633 50.8457 72.1591 51.0383 72.5626 51.2406C72.6011 51.2599 72.6395 51.2792 72.6779 51.2984C72.702 51.2984 72.7212 51.3225 72.7404 51.337C75.0034 53.2442 76.1517 55.9413 76.1517 59.3561H76.1613Z" fill="#F7F5CD"></path><path d="M44.2923 48.3505C43.9559 48.7502 43.6725 49.2222 43.4467 49.7665C43.3506 49.9928 43.2641 50.2337 43.1872 50.4889C43.1152 50.7201 43.0527 50.9609 42.9998 51.2114C42.7884 52.1746 42.6875 53.2872 42.7068 54.5539C42.7164 55.1993 42.8413 55.7917 43.0671 56.3311C42.553 56.6923 41.9332 56.9187 41.2606 56.9476L38.1424 57.0873C36.2494 57.1643 34.6591 55.7098 34.5726 53.8218L34.4573 51.2114L34.3901 49.7665L33.9961 41.0104C33.9336 39.6763 34.3949 38.4048 35.2933 37.4175C36.187 36.4349 37.4121 35.857 38.743 35.7992C41.4864 35.674 43.8166 37.8124 43.9415 40.5577L44.2923 48.3505Z" fill="#F7F5CD"></path><path d="M77.3913 21.731L69.8 48.9817C62.4491 47.5561 47.9777 46.9685 47.2714 46.9396C47.2138 46.9348 46.9591 46.9155 46.594 46.9733V16.1586C46.594 14.6655 46.9687 9.78176 51.8118 9.74805C54.5215 9.74805 55.6746 11.5782 55.6746 15.884L56.3136 42.4363C56.3473 44.5989 57.5724 44.9649 57.9472 45.0275C58.9898 45.1913 60.0756 44.3821 60.5272 43.0914L68.7767 18.7642C69.3148 17.0399 70.0163 15.8021 70.8522 15.0845C71.7651 14.3043 72.8605 14.1309 74.201 14.5547L74.8833 14.7715C76.2478 15.2001 77.151 16.0767 77.569 17.3674C77.9582 18.5715 77.8957 20.1224 77.3913 21.731Z" fill="#F7F5CD"></path><path d="M32.7278 52.1938C32.7902 53.9036 31.4498 55.3437 29.7442 55.4063L27.5341 55.4833C25.814 55.5459 24.3919 54.2022 24.3294 52.4924L24.3054 51.847L24.2766 51.0138L24.2477 50.2191L23.9691 42.3059C23.8922 40.1434 25.5882 38.3228 27.7455 38.2458L28.3172 38.2217H28.4565C29.4511 38.2217 30.3928 38.5925 31.1231 39.2764C31.887 39.9893 32.329 40.9573 32.3674 42.0073L32.6413 49.7664L32.6653 50.4888L32.6942 51.2113L32.7278 52.1938Z" fill="#F7F5CD"></path><path d="M36.4274 25.5927L37.5901 31.2037C37.6189 31.3434 37.4748 31.4542 37.3499 31.3916L32.1994 28.9064C32.1465 28.8823 32.0889 28.8823 32.0408 28.9112L27.0777 31.7576C26.9528 31.8299 26.8038 31.7287 26.8231 31.5842L27.5918 25.9058C27.6014 25.848 27.5774 25.795 27.5389 25.7565L23.3061 21.9034C23.2004 21.8071 23.2533 21.6337 23.3878 21.6096L29.0139 20.5838C29.0668 20.5741 29.1148 20.5356 29.1389 20.4874L31.4835 15.2618C31.5411 15.1317 31.7237 15.1269 31.791 15.2521L34.5007 20.2996C34.5296 20.3478 34.5776 20.3815 34.6305 20.3863L40.3143 21.0076C40.4536 21.0221 40.5161 21.1906 40.42 21.2966L36.4706 25.4386C36.4322 25.4771 36.4178 25.5349 36.4274 25.5927Z" fill="#CAFF4D"></path><path d="M26.9959 32.5043C26.823 32.5043 26.65 32.4514 26.4963 32.3502C26.2128 32.1576 26.0638 31.8301 26.1119 31.4881L26.8374 26.0986L22.8208 22.4431C22.5661 22.2119 22.47 21.8651 22.5661 21.5328C22.6622 21.2053 22.9265 20.9645 23.2628 20.9019L28.6007 19.929L30.83 14.9682C30.9693 14.6551 31.2672 14.4528 31.6083 14.4432C31.9398 14.4287 32.2617 14.6118 32.4251 14.9152L34.9955 19.7026L40.3911 20.295C40.7322 20.3335 41.0156 20.5551 41.131 20.8778C41.2463 21.2005 41.1742 21.5521 40.9388 21.8025L37.1912 25.7326L38.2963 31.0595C38.3635 31.3966 38.2434 31.7337 37.9744 31.9457C37.7053 32.1576 37.3498 32.1961 37.0375 32.0468L32.1464 29.6868L27.4331 32.3888C27.2938 32.4706 27.1401 32.5092 26.9911 32.5092L26.9959 32.5043ZM24.6177 22.1252L28.0241 25.2269C28.2403 25.4244 28.346 25.7182 28.3076 26.0071L27.6926 30.5778L31.6852 28.2901C31.9398 28.1456 32.2521 28.1311 32.5116 28.2612L36.6579 30.2599L35.721 25.7422C35.6634 25.4533 35.7498 25.1595 35.9468 24.9476L39.1275 21.6147L34.5535 21.1138C34.2604 21.0801 34.001 20.9067 33.8616 20.6418L31.6852 16.5864L29.797 20.7911C29.6769 21.056 29.4366 21.2486 29.1484 21.3016L24.6177 22.1252Z" fill="black"></path></svg>